<svg xmlns="http://www.w3.org/2000/svg" viewBox="0 0 367.94 55.76"><defs><style>.cls-1{fill:#ff6937;}.cls-2{fill:#ff5528;}.cls-3{fill:#fff;}</style></defs><title>page1Asset 3</title><g id="Layer_2" data-name="Layer 2"><g id="Layer_1-2" data-name="Layer 1"><path class="cls-1" d="M24,17.26a13.49,13.49,0,0,1,5.31,5.28,15.72,15.72,0,0,1,1.92,7.87,15.87,15.87,0,0,1-1.92,7.89A13.43,13.43,0,0,1,24,43.61a15.59,15.59,0,0,1-7.67,1.87,11.86,11.86,0,0,1-9.41-4V55.76H0v-40H6.55v3.85a10.63,10.63,0,0,1,4.21-3.14,14.21,14.21,0,0,1,5.53-1A15.6,15.6,0,0,1,24,17.26Zm-2.2,19.8a9.17,9.17,0,0,0,2.45-6.65,9.17,9.17,0,0,0-2.45-6.66,8.31,8.31,0,0,0-6.24-2.53,8.85,8.85,0,0,0-4.46,1.13,8.15,8.15,0,0,0-3.13,3.22,9.85,9.85,0,0,0-1.16,4.84,9.84,9.84,0,0,0,1.16,4.84,8.14,8.14,0,0,0,3.13,3.22,8.84,8.84,0,0,0,4.46,1.13A8.31,8.31,0,0,0,21.75,37.06Z"/><path class="cls-1" d="M42.9,43.55a14,14,0,0,1-5.58-5.36,15.14,15.14,0,0,1-2-7.78,15,15,0,0,1,2-7.76,14.1,14.1,0,0,1,5.58-5.33,16.67,16.67,0,0,1,8-1.92A16.79,16.79,0,0,1,59,17.32a14.11,14.11,0,0,1,5.58,5.33,15,15,0,0,1,2,7.76,15.15,15.15,0,0,1-2,7.78A14,14,0,0,1,59,43.55a16.77,16.77,0,0,1-8.08,1.92A16.65,16.65,0,0,1,42.9,43.55Zm14.3-6.49a9.11,9.11,0,0,0,2.48-6.65,9.11,9.11,0,0,0-2.48-6.66,8.4,8.4,0,0,0-6.27-2.53,8.31,8.31,0,0,0-6.24,2.53,9.17,9.17,0,0,0-2.45,6.66,9.16,9.16,0,0,0,2.45,6.65,8.31,8.31,0,0,0,6.24,2.53A8.4,8.4,0,0,0,57.2,37.06Z"/><path class="cls-1" d="M75.29,44.54a17.54,17.54,0,0,1-5.45-2.37L72.49,37a17,17,0,0,0,4.76,2.12,19.74,19.74,0,0,0,5.47.8q6.16,0,6.16-3.25a2.17,2.17,0,0,0-1.57-2.15,27.13,27.13,0,0,0-5-1.15,40.63,40.63,0,0,1-5.91-1.27,9.06,9.06,0,0,1-4-2.5,7,7,0,0,1-1.68-5,7.83,7.83,0,0,1,3.49-6.68q3.49-2.5,9.43-2.5a27.24,27.24,0,0,1,6,.69,17,17,0,0,1,5,1.84L92,23.15a16.29,16.29,0,0,0-8.42-2.2,9.32,9.32,0,0,0-4.59.91,2.71,2.71,0,0,0-1.57,2.39,2.39,2.39,0,0,0,1.68,2.34,26.59,26.59,0,0,0,5.2,1.29,40.36,40.36,0,0,1,5.77,1.26A9.06,9.06,0,0,1,94,31.56a6.75,6.75,0,0,1,1.62,4.84A7.66,7.66,0,0,1,92,43q-3.58,2.47-9.73,2.47A26.3,26.3,0,0,1,75.29,44.54Z"/><path class="cls-1" d="M119.18,43.5A8.1,8.1,0,0,1,116.24,45a13.25,13.25,0,0,1-3.66.5q-4.84,0-7.48-2.53t-2.64-7.37V21.44H97.62v-5.5h4.84V9.23h6.88v6.71h7.87v5.5h-7.87v14a4.64,4.64,0,0,0,1,3.27,3.92,3.92,0,0,0,3,1.13,6,6,0,0,0,3.85-1.21Z"/><path class="cls-1" d="M170.72,18.61Q174,21.83,174,28.26V45.09h-6.87v-16q0-3.85-1.71-5.8a6.15,6.15,0,0,0-4.9-2,7.17,7.17,0,0,0-5.55,2.28,9.31,9.31,0,0,0-2.09,6.52V45.09H146v-16q0-3.85-1.71-5.8a6.15,6.15,0,0,0-4.9-2,7.19,7.19,0,0,0-5.58,2.25q-2.06,2.26-2.06,6.54V45.09h-6.87V15.72h6.55v3.74a10.69,10.69,0,0,1,4.13-3,14,14,0,0,1,5.5-1,13.3,13.3,0,0,1,5.86,1.24,9.51,9.51,0,0,1,4,3.66,12.23,12.23,0,0,1,4.67-3.6,15.19,15.19,0,0,1,6.33-1.29A12,12,0,0,1,170.72,18.61Z"/><path class="cls-1" d="M203.91,18.5q3.44,3.11,3.44,9.38V45.09h-6.49V41.52a8,8,0,0,1-3.6,2.94,14.08,14.08,0,0,1-5.64,1,13.83,13.83,0,0,1-5.78-1.13A8.91,8.91,0,0,1,182,41.22a8,8,0,0,1-1.35-4.54,7.78,7.78,0,0,1,2.94-6.35q2.94-2.39,9.27-2.39h7.59v-.44a6,6,0,0,0-1.84-4.73,8,8,0,0,0-5.47-1.65,15.81,15.81,0,0,0-4.87.77,12,12,0,0,0-4,2.14l-2.7-5a16.7,16.7,0,0,1,5.56-2.69,24.73,24.73,0,0,1,6.88-.94Q200.47,15.39,203.91,18.5Zm-6.27,20.79a6.43,6.43,0,0,0,2.83-3.38V32.5h-7.1q-5.94,0-5.94,3.9a3.51,3.51,0,0,0,1.48,3,6.81,6.81,0,0,0,4.13,1.1A8.87,8.87,0,0,0,197.64,39.29Z"/><path class="cls-1" d="M241.72,18.64q3.35,3.25,3.35,9.63V45.09H238.2v-16q0-3.85-1.81-5.8a6.71,6.71,0,0,0-5.17-2,7.94,7.94,0,0,0-6,2.28Q223,26,223,30.24V45.09h-6.87V15.72h6.55v3.79A10.75,10.75,0,0,1,227,16.44a15.44,15.44,0,0,1,5.83-1A12.27,12.27,0,0,1,241.72,18.64Z"/><rect class="cls-2" x="254.94" width="113" height="55"/><path class="cls-3" d="M265.13,45.48v-36h9.46q8,0,12.46,4.46t4.48,13.36a24.49,24.49,0,0,1-1.15,7.87,15.36,15.36,0,0,1-3.3,5.69,13.6,13.6,0,0,1-5.23,3.44,19.61,19.61,0,0,1-6.93,1.16Zm6.38-5.17h2.7q5.17,0,8-3.16T285,27.33q0-6.6-2.81-9.62t-8-3h-2.7Z"/><path class="cls-3" d="M310.34,46.15a13.26,13.26,0,0,1-5.75-1.24,12.12,12.12,0,0,1-4.46-3.63,18,18,0,0,1-2.89-5.91,28.21,28.21,0,0,1-1-8,27.15,27.15,0,0,1,1-7.89,17.38,17.38,0,0,1,2.89-5.77,12.34,12.34,0,0,1,4.46-3.58,14,14,0,0,1,11.5,0,12.35,12.35,0,0,1,4.46,3.58,17.42,17.42,0,0,1,2.89,5.77,27.18,27.18,0,0,1,1,7.89,28.24,28.24,0,0,1-1,8,18,18,0,0,1-2.89,5.91,12.13,12.13,0,0,1-4.46,3.63A13.27,13.27,0,0,1,310.34,46.15Zm0-5.55a6.24,6.24,0,0,0,5.53-3.44q2.06-3.44,2.06-9.82,0-6.21-2.06-9.57a6.23,6.23,0,0,0-11.05,0q-2.06,3.35-2.06,9.57,0,6.38,2.06,9.82A6.24,6.24,0,0,0,310.34,40.59Z"/><path class="cls-3" d="M346.31,46.15a16.41,16.41,0,0,1-6.3-1.21,14.45,14.45,0,0,1-5.14-3.58,17,17,0,0,1-3.46-5.83,23,23,0,0,1-1.27-7.92,23.07,23.07,0,0,1,1.27-7.89,17.31,17.31,0,0,1,3.49-5.91,14.84,14.84,0,0,1,5.25-3.69,16.94,16.94,0,0,1,6.6-1.26,12.63,12.63,0,0,1,6,1.38A17,17,0,0,1,357,13.36l-3.52,4a11.73,11.73,0,0,0-3-2.12,8.49,8.49,0,0,0-3.74-.8,8.94,8.94,0,0,0-7.26,3.49,12.47,12.47,0,0,0-2.06,4.1,18.54,18.54,0,0,0-.74,5.45,19,19,0,0,0,.74,5.53,12.44,12.44,0,0,0,2.06,4.13,9,9,0,0,0,3.22,2.58,9.62,9.62,0,0,0,4.21.91,8.47,8.47,0,0,0,4-.94A12,12,0,0,0,354.23,37l3.52,3.9a14.27,14.27,0,0,1-11.44,5.23Z"/></g></g></svg>